<svg width="49" height="48" viewBox="0 0 49 48" fill="none" xmlns="http://www.w3.org/2000/svg">
<path d="M40.5407 14.7736H44.5392C45.0915 14.7736 45.5392 15.2213 45.5392 15.7736V30.5283C45.5392 31.0806 45.0915 31.5283 44.5392 31.5283H40.8976M40.5407 14.7736H28.3572H7.75802M40.5407 14.7736C39.7886 13.3768 38.8617 12.0872 37.7889 10.934C34.3943 7.28451 29.5398 5 24.1493 5C17.0555 5 10.8899 8.95646 7.75802 14.7736M40.8976 31.5283C37.8946 37.7247 31.5235 42 24.1493 42C18.4229 42 13.3013 39.4218 9.89221 35.3679C8.91128 34.2015 8.07212 32.9128 7.40112 31.5283M40.8976 31.5283H20.6428H7.40112M7.75802 14.7736H4.46078C3.9085 14.7736 3.46078 15.2213 3.46078 15.7736V30.5283C3.46078 31.0806 3.9085 31.5283 4.46079 31.5283H7.40112" stroke="#000AFF" stroke-width="2"/>
<path d="M14.3431 26.1843V18.0588H15.5504V21.4019C15.7593 21.0459 16.0418 20.7673 16.3977 20.5661C16.7537 20.3649 17.1484 20.2643 17.5817 20.2643C18.2086 20.2643 18.7038 20.4462 19.0675 20.8099C19.4312 21.1736 19.6131 21.665 19.6131 22.2841V26.1843H18.4175V22.6904C18.4175 22.2725 18.3053 21.9475 18.0809 21.7153C17.8564 21.4832 17.5392 21.3671 17.129 21.3671C16.6957 21.3671 16.3242 21.5412 16.0147 21.8894C15.7051 22.2299 15.5504 22.6555 15.5504 23.1663V26.1843H14.3431Z" fill="#000AFF"/>
<path d="M21.3253 24.6057V21.3903H20.3966V20.4268H21.3253V18.8714H22.5209V20.4268H23.8326V21.3903H22.5209V24.4315C22.5209 25.0042 22.7762 25.2905 23.287 25.2905C23.4495 25.2905 23.6043 25.2673 23.7513 25.2209L23.8674 26.2075C23.5965 26.3004 23.3102 26.3468 23.0084 26.3468C22.4822 26.3468 22.0682 26.2037 21.7664 25.9173C21.4723 25.631 21.3253 25.1938 21.3253 24.6057Z" fill="#000AFF"/>
<path d="M25.4628 24.6057V21.3903H24.5342V20.4268H25.4628V18.8714H26.6584V20.4268H27.9701V21.3903H26.6584V24.4315C26.6584 25.0042 26.9138 25.2905 27.4245 25.2905C27.5871 25.2905 27.7418 25.2673 27.8889 25.2209L28.0049 26.2075C27.7341 26.3004 27.4478 26.3468 27.146 26.3468C26.6197 26.3468 26.2057 26.2037 25.9039 25.9173C25.6099 25.631 25.4628 25.1938 25.4628 24.6057Z" fill="#000AFF"/>
<path d="M29.1477 28.5523V20.4268H30.3549V21.3671C30.5484 21.0421 30.8269 20.7789 31.1907 20.5777C31.5621 20.3688 31.9645 20.2643 32.3979 20.2643C33.1562 20.2643 33.7908 20.5468 34.3016 21.1117C34.8123 21.6766 35.0677 22.4079 35.0677 23.3056C35.0677 24.1878 34.8007 24.9152 34.2667 25.4879C33.7405 26.0605 33.0866 26.3468 32.305 26.3468C31.4538 26.3468 30.8037 26.0218 30.3549 25.3718V28.5523H29.1477ZM33.3265 24.6985C33.667 24.3271 33.8372 23.8628 33.8372 23.3056C33.8372 22.7484 33.667 22.288 33.3265 21.9243C32.9937 21.5528 32.5681 21.3671 32.0496 21.3671C31.5389 21.3671 31.1133 21.5528 30.7728 21.9243C30.4323 22.2957 30.262 22.7561 30.262 23.3056C30.262 23.855 30.4323 24.3155 30.7728 24.6869C31.1133 25.0584 31.5389 25.2441 32.0496 25.2441C32.5681 25.2441 32.9937 25.0622 33.3265 24.6985Z" fill="#000AFF"/>
</svg>
