<svg width="49" height="48" viewBox="0 0 49 48" fill="none" xmlns="http://www.w3.org/2000/svg">
<circle cx="25.2241" cy="30.7931" r="3.62069" stroke="#000AFF" stroke-width="2"/>
<path d="M38.2586 32.2089C42.3185 31.8431 45.5 28.431 45.5 24.2759C45.5 20.7617 43.2243 17.779 40.0663 16.7211C39.5825 16.5591 39.3319 15.979 39.491 15.4942C39.6311 15.0675 39.7069 14.6116 39.7069 14.1379C39.7069 11.7383 37.7617 9.7931 35.3621 9.7931C34.8683 9.7931 34.3937 9.87547 33.9514 10.0272C33.5343 10.1704 33.0465 10.0051 32.8492 9.61061C31.1862 6.28418 27.7478 4 23.7759 4C19.0037 4 15.0017 7.29726 13.9237 11.7379C13.8916 11.8702 13.7741 11.9655 13.6379 11.9655C8.03891 11.9655 3.5 16.5044 3.5 22.1034C3.5 27.2108 7.27668 31.436 12.1897 32.1387M38.2586 32.2089V28.8411C38.2586 28.4412 37.9344 28.1169 37.5345 28.1169H35.4237C35.0914 28.1169 34.8018 27.8908 34.7212 27.5684L34.4082 26.3165C34.3376 26.0339 34.4432 25.7364 34.6763 25.5616L35.8905 24.6509C36.2431 24.3865 36.2797 23.8711 35.9681 23.5595L33.0355 20.627C32.7807 20.3722 32.3773 20.3435 32.089 20.5597L30.6003 21.6763C30.4259 21.8071 30.2018 21.8524 29.9902 21.7995L28.6062 21.4535C28.2839 21.3729 28.0577 21.0832 28.0577 20.751V19.2069C28.0577 18.807 27.7335 18.4828 27.3336 18.4828H23.1147C22.7148 18.4828 22.3906 18.807 22.3906 19.2069V20.7227C22.3906 21.0679 22.1469 21.3651 21.8084 21.4328L19.937 21.8071C19.6996 21.8545 19.4541 21.7802 19.2829 21.609L18.3689 20.695C18.0861 20.4122 17.6276 20.4122 17.3448 20.6949L14.4802 23.5595C14.1686 23.8711 14.2052 24.3865 14.5578 24.6509L15.772 25.5616C16.0051 25.7364 16.1107 26.0339 16.0401 26.3165L15.7271 27.5684C15.6465 27.8908 15.3568 28.1169 15.0246 28.1169H12.9138C12.5139 28.1169 12.1897 28.4411 12.1897 28.8411V32.1387M38.2586 32.2089V33.6267C38.2586 34.0266 37.9344 34.3508 37.5345 34.3508H35.8447C35.5851 34.3508 35.3454 34.4897 35.2164 34.7149L34.5503 35.8772C34.3957 36.1469 34.4305 36.4852 34.6368 36.7178L36.0698 38.3336C36.3383 38.6364 36.3066 39.1005 35.9993 39.3638L33.0325 41.9068C32.7748 42.1277 32.3983 42.14 32.1268 41.9363L30.6003 40.7915C30.4259 40.6607 30.2018 40.6154 29.9902 40.6683L28.6062 41.0143C28.2839 41.0949 28.0577 41.3845 28.0577 41.7168V43.8276C28.0577 44.2275 27.7335 44.5517 27.3336 44.5517H23.1147C22.7148 44.5517 22.3906 44.2275 22.3906 43.8276V41.7451C22.3906 41.3999 22.1469 41.1027 21.8084 41.035L19.937 40.6607C19.6996 40.6132 19.4541 40.6875 19.2829 40.8587L18.331 41.8107C18.0634 42.0782 17.635 42.0947 17.3477 41.8485L14.5752 39.472C14.2235 39.1705 14.2414 38.6209 14.612 38.3429L15.7916 37.4582C16.0147 37.2909 16.1219 37.0104 16.0672 36.7369L15.7064 34.9329C15.6387 34.5945 15.3415 34.3508 14.9963 34.3508H12.9138C12.5139 34.3508 12.1897 34.0266 12.1897 33.6267V32.1387" stroke="#000AFF" stroke-width="2"/>
</svg>
