<svg width="49" height="48" viewBox="0 0 49 48" fill="none" xmlns="http://www.w3.org/2000/svg">
<path d="M17.3164 16.51C15.6603 17.8806 14.4472 19.7674 13.9237 21.924C13.8916 22.0563 13.7741 22.1516 13.6379 22.1516C11.6694 22.1516 9.83189 22.7127 8.27663 23.6836M17.3164 16.51C19.0704 15.0585 21.3213 14.1861 23.7759 14.1861C27.0366 14.1861 29.9378 15.7255 31.7923 18.1173M17.3164 16.51V7.93946M41.713 27.6791C41.2207 27.3752 40.6928 27.1233 40.137 26.9313C39.6209 26.753 39.3524 26.1309 39.5137 25.6093C39.6393 25.2031 39.7069 24.7715 39.7069 24.324C39.7069 21.9244 37.7617 19.9792 35.3621 19.9792C34.889 19.9792 34.4335 20.0548 34.0071 20.1946C33.8978 20.2305 33.7841 20.2471 33.6716 20.2457C33.3224 20.2412 32.9843 20.0626 32.8228 19.7442C32.5306 19.1681 32.1849 18.6236 31.7923 18.1173M41.713 27.6791C42.9175 28.4227 43.9091 29.4782 44.575 30.7329C45.1655 31.8454 45.5 33.1146 45.5 34.462C45.5 38.8612 41.9337 42.4275 37.5345 42.4275H13.6379C8.03891 42.4275 3.5 37.8886 3.5 32.2895C3.5 30.3089 4.068 28.4609 5.05 26.8995C5.86797 25.599 6.97318 24.4974 8.27663 23.6836M41.713 27.6791V8.93946C41.713 8.38718 41.2653 7.93946 40.713 7.93946H33.6716H31.7923M8.27663 23.6836V8.93946C8.27663 8.38718 8.72435 7.93946 9.27663 7.93946H17.3164M17.3164 7.93946V6C17.3164 5.44772 17.7641 5 18.3164 5H30.7923C31.3446 5 31.7923 5.44772 31.7923 6V7.93946M31.7923 18.1173V7.93946" stroke="#000AFF" stroke-width="2"/>
</svg>
