<svg width="49" height="48" viewBox="0 0 49 48" fill="none" xmlns="http://www.w3.org/2000/svg">
<path d="M14.2113 14.6932C14.2113 14.1409 14.659 13.6932 15.2113 13.6932H33.825C34.3773 13.6932 34.825 14.1409 34.825 14.6932V28.8897C34.825 29.442 34.3773 29.8897 33.825 29.8897H25.2371C25.01 29.8897 24.7897 29.9669 24.6124 30.1088L20.8302 33.1346C20.2052 33.6345 19.2754 33.2343 19.2089 32.4368L19.0731 30.8066C19.0299 30.2883 18.5966 29.8897 18.0765 29.8897H15.2113C14.659 29.8897 14.2113 29.442 14.2113 28.8897V14.6932Z" stroke="#000AFF" stroke-width="2"/>
<path d="M6.29714 21.7914H8.05791C8.61019 21.7914 9.05791 22.2391 9.05791 22.7914V32.9388C9.05791 33.491 8.61019 33.9388 8.05791 33.9388H4.53638C3.98409 33.9388 3.53638 33.491 3.53638 32.9388V22.7914C3.53638 22.2391 3.98409 21.7914 4.53638 21.7914H6.29714ZM6.29714 21.7914C6.29714 12.9569 13.107 3.75439 24.1501 3.75439C36.2975 3.75439 42.1871 12.9569 42.1871 21.7914M42.1871 21.7914H44.5C45.0523 21.7914 45.5 22.2391 45.5 22.7914V32.9388C45.5 33.491 45.0523 33.9388 44.5 33.9388H42.7392M42.1871 21.7914H40.9785C40.4262 21.7914 39.9785 22.2391 39.9785 22.7914V32.9388C39.9785 33.491 40.4262 33.9388 40.9785 33.9388H42.7392M42.7392 33.9388V40.6689C42.7392 41.2212 42.2915 41.6689 41.7392 41.6689H33.3526M33.3526 41.6689V40.4603C33.3526 39.908 32.9049 39.4603 32.3526 39.4603H26.2544C25.7021 39.4603 25.2544 39.908 25.2544 40.4603V43.2456C25.2544 43.7979 25.7021 44.2456 26.2544 44.2456H32.3526C32.9049 44.2456 33.3526 43.7979 33.3526 43.2456V41.6689Z" stroke="#000AFF" stroke-width="2"/>
</svg>
